/* XPM */
static char * icon_xpm[] = {
"32 32 333 2",
"  	c None",
". 	c #038300",
"+ 	c #028200",
"@ 	c #048800",
"# 	c #7FC279",
"$ 	c #6DB968",
"% 	c #008300",
"& 	c #0B9000",
"* 	c #94CE8B",
"= 	c #F9FCF9",
"- 	c #FBFDFB",
"; 	c #82C27C",
"> 	c #008400",
", 	c #139800",
"' 	c #A7D89E",
") 	c #E7F4E5",
"! 	c #E3F2E1",
"~ 	c #E8F4E6",
"{ 	c #96CD91",
"] 	c #028600",
"^ 	c #1DA100",
"/ 	c #B3DFAA",
"( 	c #D6EDD2",
"_ 	c #D5ECD1",
": 	c #D4ECD1",
"< 	c #D4EBD1",
"[ 	c #D3EBD1",
"} 	c #D5EBD3",
"| 	c #A6D5A3",
"1 	c #048700",
"2 	c #2AAB07",
"3 	c #B7E2AC",
"4 	c #C8E9C0",
"5 	c #C8E8C1",
"6 	c #C7E7C1",
"7 	c #C7E6C1",
"8 	c #C6E6C1",
"9 	c #C5E5C0",
"0 	c #C9E6C4",
"a 	c #3DA630",
"b 	c #108F00",
"c 	c #25A30A",
"d 	c #1FA300",
"e 	c #2BAD00",
"f 	c #38B510",
"g 	c #B5E3A7",
"h 	c #BBE4AF",
"i 	c #BAE4AF",
"j 	c #BAE3AF",
"k 	c #B9E2AF",
"l 	c #B8E0AF",
"m 	c #B4DEAC",
"n 	c #30A31C",
"o 	c #189600",
"p 	c #066A00",
"q 	c #005400",
"r 	c #1A9900",
"s 	c #28A50C",
"t 	c #A2D895",
"u 	c #97D587",
"v 	c #27AB02",
"w 	c #28AA00",
"x 	c #2DB300",
"y 	c #45BD1B",
"z 	c #B0E39F",
"A 	c #AFE29F",
"B 	c #AFE1A0",
"C 	c #AFE0A0",
"D 	c #ADDFA0",
"E 	c #ACDFA0",
"F 	c #ACDD9F",
"G 	c #A6DA9A",
"H 	c #2DA612",
"I 	c #239F00",
"J 	c #066900",
"K 	c #005F00",
"L 	c #189900",
"M 	c #30A914",
"N 	c #9BD68C",
"O 	c #9ED88E",
"P 	c #9FDA8E",
"Q 	c #97D884",
"R 	c #33B409",
"S 	c #2DB100",
"T 	c #32BA00",
"U 	c #53C526",
"V 	c #A8E293",
"W 	c #A4E08E",
"X 	c #A4DF8E",
"Y 	c #A3DE8E",
"Z 	c #A2DD8E",
"` 	c #A1DC8E",
" .	c #A0DB8F",
"..	c #93D580",
"+.	c #2CAA0B",
"@.	c #2FA800",
"#.	c #0A6C00",
"$.	c #036100",
"%.	c #199A00",
"&.	c #32A918",
"*.	c #94D384",
"=.	c #91D37F",
"-.	c #93D57F",
";.	c #93D67F",
">.	c #95D97F",
",.	c #95D97D",
"'.	c #3FBD10",
").	c #33B800",
"!.	c #35BF00",
"~.	c #60CD32",
"{.	c #9FE184",
"].	c #9BDF7F",
"^.	c #9ADE7F",
"/.	c #99DD7F",
"(.	c #98DC7F",
"_.	c #97DA7F",
":.	c #97DA80",
"<.	c #7FD065",
"[.	c #29AE01",
"}.	c #3AAF00",
"|.	c #0D6E00",
"1.	c #086400",
"2.	c #1BA000",
"3.	c #1DA300",
"4.	c #52BA35",
"5.	c #88D173",
"6.	c #86D26F",
"7.	c #88D46F",
"8.	c #8AD56F",
"9.	c #8CD76F",
"0.	c #8EDA71",
"a.	c #4BC618",
"b.	c #38C000",
"c.	c #3AC500",
"d.	c #69D33A",
"e.	c #95E073",
"f.	c #91DF6F",
"g.	c #91DE6F",
"h.	c #90DD6F",
"i.	c #8FDC6F",
"j.	c #8EDA6F",
"k.	c #8ED971",
"l.	c #6FCE4C",
"m.	c #2BB500",
"n.	c #45B600",
"o.	c #117400",
"p.	c #0D6500",
"q.	c #38AB00",
"r.	c #21A600",
"s.	c #26AB00",
"t.	c #2FB106",
"u.	c #62C740",
"v.	c #7FD262",
"w.	c #7FD45F",
"x.	c #80D65F",
"y.	c #82D85E",
"z.	c #86DB61",
"A.	c #55CD1F",
"B.	c #3DC700",
"C.	c #3EC900",
"D.	c #6FD73D",
"E.	c #8ADF61",
"F.	c #88DF5F",
"G.	c #87DE5F",
"H.	c #86DC5E",
"I.	c #86DB60",
"J.	c #81D95B",
"K.	c #59CB2A",
"L.	c #34BE00",
"M.	c #4FBA07",
"N.	c #157900",
"O.	c #106300",
"P.	c #1B7F00",
"Q.	c #44B300",
"R.	c #2AAF00",
"S.	c #2DB200",
"T.	c #2FB700",
"U.	c #36BB03",
"V.	c #55C826",
"W.	c #6CD241",
"X.	c #7BD852",
"Y.	c #7CD951",
"Z.	c #7FDC53",
"`.	c #5FD426",
" +	c #70DA3A",
".+	c #7FDF4F",
"++	c #80DF4F",
"@+	c #80DF50",
"#+	c #80DF51",
"$+	c #7EDD4E",
"%+	c #6CD837",
"&+	c #54D019",
"*+	c #3CC700",
"=+	c #41C802",
"-+	c #58BA15",
";+	c #1A8000",
">+	c #145F00",
",+	c #196C00",
"'+	c #208500",
")+	c #4CB700",
"!+	c #34B900",
"~+	c #33BA00",
"{+	c #36BF00",
"]+	c #3AC300",
"^+	c #3BC600",
"/+	c #3FCA00",
"(+	c #4DD00C",
"_+	c #56D416",
":+	c #5ED81E",
"<+	c #64DA26",
"[+	c #69DC2B",
"}+	c #68DB29",
"|+	c #63DA22",
"1+	c #57D712",
"2+	c #49D400",
"3+	c #46D200",
"4+	c #45D000",
"5+	c #4FD20A",
"6+	c #5EB820",
"7+	c #1F8500",
"8+	c #155700",
"9+	c #1C6800",
"0+	c #268C00",
"a+	c #54B906",
"b+	c #40C303",
"c+	c #39C100",
"d+	c #3DC600",
"e+	c #40C900",
"f+	c #44CD00",
"g+	c #4ED505",
"h+	c #59D813",
"i+	c #63DB1F",
"j+	c #6ADD27",
"k+	c #6DDE2A",
"l+	c #6CDE2A",
"m+	c #68DC25",
"n+	c #61DA1C",
"o+	c #56D710",
"p+	c #61DB19",
"q+	c #60B628",
"r+	c #258C00",
"s+	c #144C00",
"t+	c #1C5F00",
"u+	c #2C9300",
"v+	c #5AB812",
"w+	c #4ECD0B",
"x+	c #3EC800",
"y+	c #43CD00",
"z+	c #46D100",
"A+	c #50D508",
"B+	c #5FDA1B",
"C+	c #6DDE2B",
"D+	c #78E137",
"E+	c #80E341",
"F+	c #83E445",
"G+	c #83E444",
"H+	c #7EE33F",
"I+	c #74E034",
"J+	c #85E546",
"K+	c #62B52D",
"L+	c #2B9000",
"M+	c #1A5300",
"N+	c #329900",
"O+	c #5CB71A",
"P+	c #60D61A",
"Q+	c #43CF00",
"R+	c #4CD404",
"S+	c #5FDA1A",
"T+	c #70DF2E",
"U+	c #7FE340",
"V+	c #8CE64F",
"W+	c #95E95A",
"X+	c #9AEA60",
"Y+	c #99EA5F",
"Z+	c #92E856",
"`+	c #A7ED72",
" @	c #60B22C",
".@	c #319500",
"+@	c #379D00",
"@@	c #5EB71E",
"#@	c #74DF2E",
"$@	c #54D70D",
"%@	c #6CDD28",
"&@	c #8FE854",
"*@	c #9FEC66",
"=@	c #AAEF74",
"-@	c #B1F17A",
";@	c #ADF076",
">@	c #C3F399",
",@	c #5DB227",
"'@	c #369700",
")@	c #3DA100",
"!@	c #5DB61D",
"~@	c #95E759",
"{@	c #72DF30",
"]@	c #8AE64D",
"^@	c #9DEB64",
"/@	c #AFF17A",
"(@	c #BFF48B",
"_@	c #C6F692",
":@	c #D9F7BB",
"<@	c #5AB320",
"[@	c #399800",
"}@	c #40A200",
"|@	c #5AB718",
"1@	c #B0EC7E",
"2@	c #8FE752",
"3@	c #A8EE70",
"4@	c #BCF489",
"5@	c #CFF99D",
"6@	c #E7F9D3",
"7@	c #57B416",
"8@	c #3C9600",
"9@	c #43A200",
"0@	c #5BB913",
"a@	c #C4F09C",
"b@	c #A9EF72",
"c@	c #C2F590",
"d@	c #E5F7D3",
"e@	c #54B70B",
"f@	c #3C9100",
"g@	c #45A000",
"h@	c #59BC0C",
"i@	c #D5F3B8",
"j@	c #D7F2BF",
"k@	c #53BA03",
"l@	c #3B8800",
"m@	c #449900",
"n@	c #55BD00",
"o@	c #54BE00",
"p@	c #377B00",
"q@	c #3D8600",
"r@	c #306A00",
"                                                                ",
"                                                                ",
"                                                                ",
"                                                  . +           ",
"                                                @ # $ %         ",
"                                              & * = - ; >       ",
"                                            , ' ) ! ! ~ { ]     ",
"                                          ^ / ( _ : < [ } | 1   ",
"                                        2 3 4 5 6 7 8 9 0 a b   ",
"          c d                       e f g h i j k k l m n o p q ",
"      r s t u v w                 x y z A B C D E F G H I J K   ",
"    L M N O P Q R S             T U V W X Y Z `  ...+.@.#.$.    ",
"  %.&.*.=.-.;.>.,.'.).        !.~.{.].^./.(._.:.<.[.}.|.1.      ",
"  2.3.4.5.6.7.8.9.0.a.b.    c.d.e.f.g.h.i.j.k.l.m.n.o.p.        ",
"  q.r.s.t.u.v.w.x.y.z.A.B.C.D.E.F.F.G.H.I.J.K.L.M.N.O.          ",
"  P.Q.R.S.T.U.V.W.X.Y.Z.`. +.+++@+#+$+%+&+*+=+-+;+>+            ",
"  ,+'+)+!+~+{+]+^+/+(+_+:+<+[+}+|+1+2+3+4+5+6+7+8+              ",
"    9+0+a+b+c+d+e+f+3+g+h+i+j+k+l+m+n+o+p+q+r+s+                ",
"      t+u+v+w+x+y+z+A+B+C+D+E+F+G+H+I+J+K+L+                    ",
"        M+N+O+P+Q+R+S+T+U+V+W+X+Y+Z+`+ @.@                      ",
"            +@@@#@$@%@H+&@*@=@-@;@>@,@'@                        ",
"              )@!@~@{@]@^@/@(@_@:@<@[@                          ",
"                }@|@1@2@3@4@5@6@7@8@                            ",
"                  9@0@a@b@c@d@e@f@                              ",
"                    g@h@i@j@k@l@                                ",
"                      m@n@o@p@                                  ",
"                        q@r@                                    ",
"                                                                ",
"                                                                ",
"                                                                ",
"                                                                ",
"                                                                "};
